REM DIRINDEX 1\3,1\2\4,1\2\5,1\2\6
REM DIRNAME folder01,folder02,folder03,folder04,folder05,folder06
TITLE ""
FILE "144.mp3" MP3
  TRACK 01 AUDIO
    TITLE "4:cjc137_6265"
    INDEX 01 00:00:00
  TRACK 02 AUDIO
    TITLE "0:"
    INDEX 01 00:01:09
  TRACK 03 AUDIO
    TITLE "6:cjc137_6266"
    INDEX 01 00:01:21
  TRACK 04 AUDIO
    TITLE "0:"
    INDEX 01 00:02:20
  TRACK 05 AUDIO
    TITLE "5:cjc137_6267"
    INDEX 01 00:02:32
  TRACK 06 AUDIO
    TITLE "0:"
    INDEX 01 00:03:39
  TRACK 07 AUDIO
    TITLE "4:cjc137_6268"
    INDEX 01 00:04:50
  TRACK 08 AUDIO
    TITLE "0:"
    INDEX 01 00:05:57
  TRACK 09 AUDIO
    TITLE "6:cjc137_6269"
    INDEX 01 00:05:63
  TRACK 10 AUDIO
    TITLE "0:"
    INDEX 01 00:07:15
  TRACK 11 AUDIO
    TITLE "5:cjc137_6270"
    INDEX 01 00:07:19
  TRACK 12 AUDIO
    TITLE "0:"
    INDEX 01 00:08:24
  TRACK 13 AUDIO
    TITLE "4:cjc137_6271"
    INDEX 01 00:09:32
  TRACK 14 AUDIO
    TITLE "0:"
    INDEX 01 00:10:45
  TRACK 15 AUDIO
    TITLE "6:cjc137_6272"
    INDEX 01 00:10:47
  TRACK 16 AUDIO
    TITLE "0:"
    INDEX 01 00:11:54
  TRACK 17 AUDIO
    TITLE "5:cjc137_6273"
    INDEX 01 00:11:56
  TRACK 18 AUDIO
    TITLE "0:"
    INDEX 01 00:12:71
  TRACK 19 AUDIO
    TITLE "4:cjc137_6274"
    INDEX 01 00:14:02
  TRACK 20 AUDIO
    TITLE "0:"
    INDEX 01 00:15:21
  TRACK 21 AUDIO
    TITLE "6:cjc137_6275"
    INDEX 01 00:15:25
  TRACK 22 AUDIO
    TITLE "0:"
    INDEX 01 00:16:48
  TRACK 23 AUDIO
    TITLE "5:cjc137_6276"
    INDEX 01 00:16:51
  TRACK 24 AUDIO
    TITLE "0:"
    INDEX 01 00:17:72
  TRACK 25 AUDIO
    TITLE "4:cjc137_6277"
    INDEX 01 00:19:03
  TRACK 26 AUDIO
    TITLE "0:"
    INDEX 01 00:20:39
  TRACK 27 AUDIO
    TITLE "6:cjc137_6278"
    INDEX 01 00:20:43
  TRACK 28 AUDIO
    TITLE "0:"
    INDEX 01 00:22:03
  TRACK 29 AUDIO
    TITLE "5:cjc137_6279"
    INDEX 01 00:22:09
  TRACK 30 AUDIO
    TITLE "0:"
    INDEX 01 00:23:44
  TRACK 31 AUDIO
    TITLE "4:cjc137_6280"
    INDEX 01 00:24:53
  TRACK 32 AUDIO
    TITLE "0:"
    INDEX 01 00:25:74
  TRACK 33 AUDIO
    TITLE "6:cjc137_6281"
    INDEX 01 00:26:09
  TRACK 34 AUDIO
    TITLE "0:"
    INDEX 01 00:27:39
  TRACK 35 AUDIO
    TITLE "5:cjc137_6282"
    INDEX 01 00:27:45
  TRACK 36 AUDIO
    TITLE "0:"
    INDEX 01 00:28:68
  TRACK 37 AUDIO
    TITLE "4:cjc137_6283"
    INDEX 01 00:30:01
  TRACK 38 AUDIO
    TITLE "0:"
    INDEX 01 00:31:18
  TRACK 39 AUDIO
    TITLE "6:cjc137_6284"
    INDEX 01 00:31:24
  TRACK 40 AUDIO
    TITLE "0:"
    INDEX 01 00:32:66
  TRACK 41 AUDIO
    TITLE "5:cjc137_6285"
    INDEX 01 00:32:72
  TRACK 42 AUDIO
    TITLE "0:"
    INDEX 01 00:34:12
  TRACK 43 AUDIO
    TITLE "4:cjc137_6286"
    INDEX 01 00:35:23
  TRACK 44 AUDIO
    TITLE "0:"
    INDEX 01 00:36:36
  TRACK 45 AUDIO
    TITLE "6:cjc137_6287"
    INDEX 01 00:36:42
  TRACK 46 AUDIO
    TITLE "0:"
    INDEX 01 00:37:69
  TRACK 47 AUDIO
    TITLE "5:cjc137_6288"
    INDEX 01 00:38:00
  TRACK 48 AUDIO
    TITLE "0:"
    INDEX 01 00:39:13
  TRACK 49 AUDIO
    TITLE "4:cjc137_6289"
    INDEX 01 00:40:21
  TRACK 50 AUDIO
    TITLE "0:"
    INDEX 01 00:41:51
  TRACK 51 AUDIO
    TITLE "6:cjc137_6290"
    INDEX 01 00:41:53
  TRACK 52 AUDIO
    TITLE "0:"
    INDEX 01 00:42:74
  TRACK 53 AUDIO
    TITLE "5:cjc137_6291"
    INDEX 01 00:43:05
  TRACK 54 AUDIO
    TITLE "0:"
    INDEX 01 00:44:36
  TRACK 55 AUDIO
    TITLE "4:cjc137_6292"
    INDEX 01 00:45:39
  TRACK 56 AUDIO
    TITLE "0:"
    INDEX 01 00:46:45
  TRACK 57 AUDIO
    TITLE "6:cjc137_6293"
    INDEX 01 00:46:53
  TRACK 58 AUDIO
    TITLE "0:"
    INDEX 01 00:47:72
  TRACK 59 AUDIO
    TITLE "5:cjc137_6294"
    INDEX 01 00:48:00
  TRACK 60 AUDIO
    TITLE "0:"
    INDEX 01 00:49:08
  TRACK 61 AUDIO
    TITLE "4:cjc137_6295"
    INDEX 01 00:50:17
  TRACK 62 AUDIO
    TITLE "0:"
    INDEX 01 00:51:32
  TRACK 63 AUDIO
    TITLE "6:cjc137_6296"
    INDEX 01 00:51:38
  TRACK 64 AUDIO
    TITLE "0:"
    INDEX 01 00:52:45
  TRACK 65 AUDIO
    TITLE "5:cjc137_6297"
    INDEX 01 00:52:51
  TRACK 66 AUDIO
    TITLE "0:"
    INDEX 01 00:53:66
  TRACK 67 AUDIO
    TITLE "4:cjc137_6298"
    INDEX 01 00:54:72
  TRACK 68 AUDIO
    TITLE "0:"
    INDEX 01 00:56:02
  TRACK 69 AUDIO
    TITLE "6:cjc137_6299"
    INDEX 01 00:56:08
  TRACK 70 AUDIO
    TITLE "0:"
    INDEX 01 00:57:27
  TRACK 71 AUDIO
    TITLE "5:cjc137_6300"
    INDEX 01 00:57:33
  TRACK 72 AUDIO
    TITLE "0:"
    INDEX 01 00:58:36
  TRACK 73 AUDIO
    TITLE "4:cjc137_6301"
    INDEX 01 00:59:45
  TRACK 74 AUDIO
    TITLE "0:"
    INDEX 01 01:00:47
  TRACK 75 AUDIO
    TITLE "6:cjc137_6302"
    INDEX 01 01:00:51
  TRACK 76 AUDIO
    TITLE "0:"
    INDEX 01 01:01:40
  TRACK 77 AUDIO
    TITLE "5:cjc137_6303"
    INDEX 01 01:01:46
  TRACK 78 AUDIO
    TITLE "0:"
    INDEX 01 01:02:48
  TRACK 79 AUDIO
    TITLE "4:cjc137_6304"
    INDEX 01 01:03:53
  TRACK 80 AUDIO
    TITLE "0:"
    INDEX 01 01:05:28
  TRACK 81 AUDIO
    TITLE "6:cjc137_6305"
    INDEX 01 01:05:34
  TRACK 82 AUDIO
    TITLE "0:"
    INDEX 01 01:07:35
  TRACK 83 AUDIO
    TITLE "5:cjc137_6306"
    INDEX 01 01:07:39
  TRACK 84 AUDIO
    TITLE "0:"
    INDEX 01 01:09:14
  TRACK 85 AUDIO
    TITLE "4:cjc137_6307"
    INDEX 01 01:10:22
  TRACK 86 AUDIO
    TITLE "0:"
    INDEX 01 01:11:66
  TRACK 87 AUDIO
    TITLE "6:cjc137_6308"
    INDEX 01 01:11:72
  TRACK 88 AUDIO
    TITLE "0:"
    INDEX 01 01:13:30
  TRACK 89 AUDIO
    TITLE "5:cjc137_6309"
    INDEX 01 01:13:34
  TRACK 90 AUDIO
    TITLE "0:"
    INDEX 01 01:15:03
  TRACK 91 AUDIO
    TITLE "4:cjc137_6310"
    INDEX 01 01:16:11
  TRACK 92 AUDIO
    TITLE "0:"
    INDEX 01 01:17:33
  TRACK 93 AUDIO
    TITLE "6:cjc137_6311"
    INDEX 01 01:17:39
  TRACK 94 AUDIO
    TITLE "0:"
    INDEX 01 01:18:56
  TRACK 95 AUDIO
    TITLE "5:cjc137_6312"
    INDEX 01 01:18:60
  TRACK 96 AUDIO
    TITLE "0:"
    INDEX 01 01:20:08
  TRACK 97 AUDIO
    TITLE "4:cjc137_6313"
    INDEX 01 01:21:16
  TRACK 98 AUDIO
    TITLE "0:"
    INDEX 01 01:22:42
  TRACK 99 AUDIO
    TITLE "6:cjc137_6314"
    INDEX 01 01:22:48
  TRACK 100 AUDIO
    TITLE "0:"
    INDEX 01 01:23:67
  TRACK 101 AUDIO
    TITLE "5:cjc137_6315"
    INDEX 01 01:23:69
  TRACK 102 AUDIO
    TITLE "0:"
    INDEX 01 01:25:21
  TRACK 103 AUDIO
    TITLE "4:cjc137_6316"
    INDEX 01 01:26:27
  TRACK 104 AUDIO
    TITLE "0:"
    INDEX 01 01:27:36
  TRACK 105 AUDIO
    TITLE "6:cjc137_6317"
    INDEX 01 01:27:42
  TRACK 106 AUDIO
    TITLE "0:"
    INDEX 01 01:29:07
  TRACK 107 AUDIO
    TITLE "5:cjc137_6318"
    INDEX 01 01:29:11
  TRACK 108 AUDIO
    TITLE "0:"
    INDEX 01 01:30:20
  TRACK 109 AUDIO
    TITLE "4:cjc137_6319"
    INDEX 01 01:31:26
  TRACK 110 AUDIO
    TITLE "0:"
    INDEX 01 01:32:57
  TRACK 111 AUDIO
    TITLE "6:cjc137_6320"
    INDEX 01 01:32:62
  TRACK 112 AUDIO
    TITLE "0:"
    INDEX 01 01:33:72
  TRACK 113 AUDIO
    TITLE "5:cjc137_6321"
    INDEX 01 01:34:01
  TRACK 114 AUDIO
    TITLE "0:"
    INDEX 01 01:35:33
  TRACK 115 AUDIO
    TITLE "4:cjc137_6322"
    INDEX 01 01:36:39
  TRACK 116 AUDIO
    TITLE "0:"
    INDEX 01 01:37:54
  TRACK 117 AUDIO
    TITLE "6:cjc137_6323"
    INDEX 01 01:37:62
  TRACK 118 AUDIO
    TITLE "0:"
    INDEX 01 01:39:15
  TRACK 119 AUDIO
    TITLE "5:cjc137_6324"
    INDEX 01 01:39:19
  TRACK 120 AUDIO
    TITLE "0:"
    INDEX 01 01:40:36
